<?xml version="1.0" encoding="UTF-8"?>
<svg version="1.1" viewBox="0 0 1000 1000" xml:space="preserve" xmlns="http://www.w3.org/2000/svg"><path d="m427.94 706.83c-5.5848 89.706 14.311 180.46 60.386 240.5" fill="none" stroke="#e8e8eb" stroke-linecap="round" stroke-linejoin="round" stroke-width="60"/><path d="m658.25 628.73c19.547 72.603 58.99 138.92 102.62 190.93" fill="none" stroke="#e8e8eb" stroke-linecap="round" stroke-linejoin="round" stroke-width="60"/><path d="m632.04 361.45c250.91-205.66-57.625-441.87-200.18-167.81-150.14-153.69-429.54 49.007-161.89 223.67l105.23 303.78 326.97-112.48z" fill="#daad80" stroke="#c69666" stroke-linejoin="round" stroke-width="70"/><circle cx="329.38" cy="301.24" r="35.418" fill="#fff"/><circle cx="560.92" cy="246.09" r="35.418" fill="#fff"/><path d="m642.95 402.11c72.986-41.469 167.22-40.576 198.68 6.3624" fill="none" stroke="#e8e8eb" stroke-linecap="round" stroke-linejoin="round" stroke-width="60"/><path d="m306.47 517.29c-134.27 6.064-177.75 99.552-159.1 166.34" fill="none" stroke="#e8e8eb" stroke-linecap="round" stroke-linejoin="round" stroke-width="60"/><path d="m668.9 290.88a559.57 559.57 0 0 0-146.02 2.6278 383.48 383.48 0 0 0-5.6812 40.106 519.82 519.82 0 0 0-147.22 48.21 385.13 385.13 0 0 0-28.304-28.977 563.51 563.51 0 0 0-119.36 84.388c-43.277 151.7-26.371 280.28 24.11 395.95a562.66 562.66 0 0 0 189.44 28.398 413.49 413.49 0 0 0 16.445-67.598 364.11 364.11 0 0 1-63.451-8.2279c3.5091-4.845 6.884-9.7579 10.14-14.52a402.15 402.15 0 0 0 325.29-106.52c5.5758 2.1499 11.203 4.1149 16.765 5.7094a365.49 365.49 0 0 1-46.378 44.25 409.76 409.76 0 0 0 53.228 44.726 560.1 560.1 0 0 0 136.07-134.94c-31.994-142.84-107.45-251.01-215.07-333.59zm-234.57 399.47c-31.71 10.384-67.33-9.8135-78.923-45.215-11.593-35.402 4.1875-72.711 36.706-83.36 32.519-10.649 68.02 9.8676 79.057 45.451 11.037 35.584-4.5232 72.541-36.84 83.124zm213.62-69.955c-31.76 10.401-67.28-9.8301-78.873-45.232-11.593-35.402 4.1875-72.711 36.757-83.377 32.569-10.666 67.868 9.9173 78.905 45.501 11.037 35.584-4.4726 72.525-36.789 83.108z" fill="#5865f2" stroke-width="5.3216"/><path d="m841.63 408.47c21.627 32.265 13.596 86.287-51.382 163.26" fill="none" stroke="#e8e8eb" stroke-linecap="round" stroke-linejoin="round" stroke-width="60"/><path d="m147.37 683.63c15.121 54.142 71.08 90.735 152.61 48.968" fill="none" stroke="#e8e8eb" stroke-linecap="round" stroke-linejoin="round" stroke-width="60"/></svg>
