<?xml version="1.0" encoding="UTF-8"?>
<svg width="585" height="585" version="1.1" viewBox="0 0 585 585" xmlns="http://www.w3.org/2000/svg">
 <path d="m339.5 170.65-5 0.289-26.507 2.366-1.722 2.196-0.675 5.5-0.674 5.5-1.422 10-12 2.536-10 2.468-10 2.469-8.5 2.402-8.5 2.403-12 4.478-8.39 3.744h-0.7-0.7l-7.475 3.595-7.474 3.595-8.285-8.628-8.286-8.628-3.345 2.007-3.345 2.008-4 2.148-4 2.147-9 5.527-9 5.526-6.5 4.511-6.5 4.51-9 7.16-5.578 4.761-5.577 4.761h-1.012-1.012l-2.51 5.5-1.344 4-1.343 4-3.282 13-3.396 21-0.794 1.269-0.793 1.269-0.497 7.858-0.496 7.858-2.6 24.746-0.173 14.02-0.172 14.02 2.16 27.96 1.522 5.367 1.521 5.367-0.512 1.334-0.511 1.333 4.199 3.134 4.2 3.134 15-0.92 10.877-3.625 10.877-3.624h7.725 7.725l6.612 4.5 3.904 5.272 0.511 4.531 0.51 4.532-3.274 5.722-3.274 5.723-5.974 6.804-6.109 3.051-6.11 3.052-17 5.956-16.32 3.432 1.832 5.204 1.833 5.204 1.577 3.162 1.578 3.162v1.658 1.658l1.976 2.121 1.975 2.12 8.57 2.614 8.569 2.614 21.41 4.992 4.5 0.998 4.5 0.999 15 1.881 15 1.882 9 0.231 9 0.23 6.178-0.152 6.178-0.153 4.04-10.798 2.067-8.851 2.066-8.851 1.093-4.171 1.094-4.171-1.334-2.158h-3.782-3.782l-16.818-2.252-2.5-1.02-2.5-1.021-1.912-0.103-1.913-0.104-0.4-1.187-0.4-1.188 3.778-3.778 0.651-1.698 0.652-1.698 2.435 0.611 2.436 0.611 16.336 0.758 16.337 0.759 18-0.738 15-2.768 17-3.25 8-2.602 8-2.603 7-2.427 7-2.426 3-1.558 9-3.818 9-3.817 5-3.422 4.146-2.098 4.145-2.097 1.355-1.283 1.354-1.283 13-8.906 10.388-7.882 10.388-7.881 1.272-0.488 1.271-0.488 3.091 1.598 3.09 1.598v0.822 0.823l-12 11.446v0.686 0.686l-11.888 9.986-0.112 1.634 3.25 3.268 3.25 3.269 7.5 6.453 7.5 6.452 3.683 2.712 3.684 2.712h0.662 0.662l2.905-2.068 2.904-2.068 0.015 0.818 0.016 0.818 0.734-1.008 0.735-1.009 12-9.583 12-9.584 14.536-14.408 14.535-14.408 9.245-11.958 9.244-11.959-0.63-4.541-0.631-4.542-1.399-4.285-1.4-4.285v-1.547-1.547l-2.58-7.668-2.581-7.668-1.547-4.229-1.547-4.228-2.855 4.309-2.854 4.309-5.822 5.554-5.822 5.553-4.954 2.51-4.953 2.51-7.717 1.297-7.717 1.296-10.692-3.37-2.43-2.586-2.429-2.586v-7.391-7.391l11.14-10.876 4.194-5.84 4.194-5.841 3.802-6 3.801-6 2.528-7 1.75-9.75 1.749-9.75h-0.684-0.684l-5.79-9.398-5.25-7.773-5.25-7.772v-1.029-1.028h-0.945-0.945l-13.242-16.5-15.362-17-7.006-6.95v-0.756-0.755l-2.5-1.714-2.5-1.713-3-3.148-14.172-11.964-7.632-6-5.196-1.484-39-1.988-4 0.332-5 0.289m17.826 117.4-4.173 0.826-3.233 1.671-3.232 1.672-4.065 3.787h-0.774-0.774l-7.794 11.5-1.726 6.906-1.727 6.906 0.709 7.059 0.709 7.058 3.22 7.067 3.221 7.066 4.906 4.78 4.907 4.78 13 6.378 16-0.162 3.5-1.81 3.5-1.809 4.178-2.858 4.179-2.858 2.856-4.252 2.857-4.251 1.142-3 1.141-3 1.256-5.226 1.257-5.227-1.133-7.285-1.132-7.286-2.545-5.754-2.546-5.755-8.51-9.248-7.788-4.926-5.512-1.896-5.513-1.897-3.094 0.11-3.093 0.109-4.174 0.825m-128 40.779-5.178 1.821-3.322 2.302-3.321 2.302-7.56 9.252-2.109 6.887-2.109 6.888 0.566 8.733 0.565 8.733 6.496 13.322 4.784 4.784 4.783 4.784 5.792 2.934 5.792 2.935h9.539 9.54l5.825-3.5 5.826-3.5 6.538-8 4.694-10 0.038-22-6.608-14-8.392-8.596-8.54-5.012-4.23-1.256-4.23-1.257-10-0.378-5.179 1.822" fill="#5865f2" fill-rule="evenodd"/>
 <path d="m331.41 15.416-16.092 3.295-12.816 6.496-6.169 4.162-6.168 4.162-16.346 13.956-5.228 6.006-5.228 6.007-4.07 5.5-4.071 5.5-5.06 10-1.42 1.892-1.42 1.891-5.91-4.818-5.91-4.819-20.532-9.816-7.831-1.542-7.83-1.543-41.807 4.282-7 1.874-7 1.873-9.5 3.722-9.5 3.723-8 4.032-4.761 3.468-4.762 3.468-7.791 9.335-7.792 9.335-5.153 9.321-5.154 9.322-1.532 5.917-1.532 5.916-0.144 7.584-0.144 7.583 1.632 13.5 1.633 13.5 2.172 11 4.958 10.472 4.959 10.472 13.082 19.65 4.664 4.526 4.665 4.526 16 9.996 1.687 1.134 1.686 1.134 5.814-4.986 5.813-4.985 13-10.11 19-12.56-1.5 0.452-1.5 0.451-8-3.628-5-0.022-5-0.021-6.401-3.251-6.4-3.25-4.302-4-4.303-4-5.435-10-5.436-10-3.008-9-1.68-15.724-1.679-15.725 3.322-6.275 3.322-6.276 15-15.11 3.5-1.116 3.5-1.115 7.231-2.607 7.23-2.608 36.445-3.819 5.426 1.907 5.427 1.908 2.12 1.415 2.121 1.416 6 5.276 6 5.277 5 6.508 5 6.507 9 4.792 5-0.428 5-0.427 13-2.376 3.627-2.382 3.627-2.383 4.358-7.052 1.553-7.792 1.552-7.791 4.63-9 4.631-9 12.582-12.5 12.581-12.5 5.457-3.237 5.457-3.238 12.847-2.602 12.847-2.603 19.251 0.68 5.822 2.859 5.823 2.859 7.532 7.282 2.608 13.5 2.609 13.5 2.082 15 2.112 26-1.98 17-5.276 13-3.556 3.685-3.555 3.685 5.98 1.63 3.813 3 3.814 3 14.134 12 2.989 2.818 2.989 2.819 2.776-3.319 2.775-3.318 9.866-20 4.08-12.25 1.137-11.64 1.136-11.64-1.143-15.235-1.144-15.235-1.924-13-1.925-13-2.552-11.5-2.553-11.5-3.425-7.23-3.426-7.23-9.618-10.296-5.881-3.998-5.881-3.999-16.77-7.858-13.468-2.854-12.5 0.042-12.5 0.043-16.092 3.296m39.751 273.73 1.66 1.353 15.356 49 0.162 0.81 0.163 0.81-11.618 5.314-11.618 5.315-6.621 2.203-6.621 2.204-1.14 1.844h-1.612-1.613l-2.078-1.75-2.079-1.75 1.941 2.29 1.942 2.291 6.558 3.209 6.559 3.21 16-0.162 3.5-1.81 3.5-1.809 4.178-2.858 4.179-2.858 2.856-4.252 2.857-4.251 1.142-3 1.141-3 1.256-5.226 1.257-5.227-1.133-7.285-1.132-7.286-2.577-5.825-2.576-5.826-4.956-5.24-4.955-5.239-5.269-2.592-5.268-2.591-5-1.37 1.659 1.354m-163.27 61.99-2.168 7.138 0.566 8.733 0.565 8.733 6.496 13.322 4.784 4.784 4.783 4.784 5.792 2.934 5.792 2.935h9.539 9.54l5.825-3.5 5.826-3.5 3.236-4 3.235-4 1.551-3.205 1.55-3.205-6.302 1.178-22 5.908-12.734 2.886-1.415-1.781-1.414-1.781-4.969-7.205-4.968-7.205v-1.481-1.481l-10.39-24.602 0.266-3.526h-0.409-0.409l-2.168 7.137" fill="#c69666" fill-rule="evenodd"/>
 <path d="m339.05 55.561-11.455 2.443-10.95 6.496-12.581 12.5-12.582 12.5-4.631 9-4.63 9-1.575 7.899-1.574 7.9-2.467 3.727-2.466 3.728-3.341 2.065-3.341 2.064-6.477 1.197-6.476 1.196-5 0.427-5 0.428-9-4.792-5-6.507-5-6.508-6-5.277-6-5.276-2.121-1.416-2.12-1.415-5.427-1.908-5.426-1.907-18.223 1.91-18.222 1.909-7.23 2.608-7.231 2.607-3.5 1.115-3.5 1.116-15 15.11-3.322 6.276-3.322 6.275 1.679 15.725 1.68 15.724 3.008 9 5.436 10 5.435 10 4.303 4 4.302 4 6.4 3.25 6.401 3.251 5 0.021 5 0.022 4.135 1.878 4.135 1.877 2.042-1.149 2.042-1.15 13.646-7.846 3.28-1.827 3.281-1.827h0.91 0.91l8.004 8.189 8.005 8.189 5.305-2.589 5.305-2.59 23-8.968 20-6.076 17-4.064 6.838-1.467 6.837-1.466 0.53-0.529 0.529-0.529 1.325-10.192 1.326-10.193 0.807-0.783 0.808-0.783 7.5-1.13 7.5-1.129 43-1.143 20.882 2.286 3.682-3.595 3.682-3.596 2.747-7.002 2.747-7.001 0.922-8.17 0.921-8.169-1.054-13-1.053-13-2.082-15-2.609-13.5-2.608-13.5-7.532-7.282-5.823-2.859-5.822-2.859-22-0.382-11.454 2.443m-16.398 68.466-2.851 0.854-3.239 2.219-3.238 2.22-2.41 3.517-2.41 3.516v7.647 7.647l2.41 3.516 2.41 3.517 6.444 4.416 3.842 1.061 3.843 1.061 10.804-2.418 4.298-4.299 4.299-4.298 1.069-3.852 1.07-3.851v-2.5-2.5l-1.07-3.851-1.069-3.852-8.462-8.462-4.637-1.167-4.637-1.168-3.614 0.172-2.852 0.855m-138.15 33.32-3 1.376-2.843 2.868-2.843 2.867-1.286 2.521-1.287 2.521-0.71 3.294-0.709 3.294 1.228 5.122 1.229 5.122 8.518 8.518 3.852 1.069 3.851 1.07h2.5 2.5l3.851-1.07 3.852-1.069 4.298-4.299 4.299-4.298 2.418-10.804-1.061-3.843-1.061-3.842-4.416-6.444-3.48-2.385-3.481-2.386-6.61-0.288-6.609-0.289-3 1.375m173 131.32-2 0.431-8 3.342-3.784 2.977-3.784 2.976-6.016 9.778-1.574 6.141-1.573 6.142 0.455 7.525 0.456 7.525 3.127 6.638 3.128 6.639 9.223 9.223h1.862 1.862l1.14-1.844 6.621-2.204 6.621-2.203 11.618-5.315 11.618-5.314-0.163-0.81-0.162-0.81-15.356-49-1.601-1.25-1.6-1.25-10.118 0.232-2 0.431m-128.28 40.748-4.277 1.394-2.723 1.738-2.724 1.738-8.366 9.098-0.862 3.296 10.728 25.476v1.47 1.469l4.968 7.205 4.969 7.205 1.414 1.781 1.415 1.781 6.367-1.446 6.367-1.447 11.5-3.011 11.5-3.012 2.561-0.544 2.561-0.545 1.242-6.279 1.243-6.278-2.298-14.74-5.62-12.26-4.518-4.55-4.519-4.549-5.314-2.892-5.313-2.892-16.025-0.6-4.276 1.394" fill="#daad80" fill-rule="evenodd"/>
 <path d="m434.5 197.66-3 0.358-8.788 1.15 7.442 7.667 7.443 7.667 4.452 5.025 4.451 5.026 2.833 3.474 2.833 3.475 5.334 7.44 3.816 1.548 3.816 1.549 4.713 4.731 4.713 4.732 3.442 7.302v4.081 4.08l-1.12 7.268-1.121 7.269-2.942 10.212-4.659 7.471-4.658 7.471-7.376 11.056-4.997 4.184-4.998 4.184-1.181 3.58-1.181 3.579 0.984 8.734 3.104 4.738 5.71 2.317 5.71 2.318 7.612-1.243 7.613-1.243 5-2.568 5-2.569 4.265-3.493 4.265-3.494 9.198-12.234 7.534-15 5.036-16 2.604-11.632 2.603-11.631 1.284-18.09-2.45-12.454-4.702-10.632-4.819-5.156-4.818-5.155-12-8.514-12.494-6.262-5.384-2.014-5.384-2.015-13.738-2.91-9 0.132-9 0.133-3 0.358m-324 110.75-8 4.176-7.584 5.128-7.584 5.129-4.689 5.215-4.688 5.215-4.499 9.116-4.498 9.117-0.938 16.777-0.938 16.776 0.903 10.276 0.903 10.275 7.004 19.596 4.073 6.65 4.072 6.65 1.232 1.512 1.231 1.512 5.5 4.613 5.5 4.614 4.469 2.257 4.47 2.256 2.53 1.839 2.531 1.838 5.96 1.529 5.96 1.53 14.08-0.018 20-5.09 1.9-1.892h1.698 1.699l17.794-8.908 2.972-3.796 2.971-3.796 2.733-5.135 2.733-5.136-0.022-2.364-0.022-2.365-1.861-4.099-1.862-4.099-3.366-2.401-3.367-2.401-18 0.084-10.946 3.708-10.947 3.708h-6.653-6.654l-4.292-3.109-4.291-3.109-4.674-5.282-5.772-11.337-5.771-11.337 0.199-11.608 0.199-11.607 3.301-6.539 3.301-6.538 2.763-3.164 2.762-3.163 0.494-6.853 0.493-6.854 1.042-9 1.041-9 1.064-5.5-0.83 0.114-0.829 0.114-8 4.176m295.86 95.37-5.907 4.726-13.268 8.614 7.081 14.693 7.08 14.693 7.932 14.477 7.933 14.477 3.866 5.046 7.211 6.342 7.211 6.341 3.71 1.909 3.71 1.908h5.055 5.054l3.697-3.387 3.696-3.388 0.391-6.926 0.392-6.926-4.102-10.492-4.102-10.491-11.153-13.521-2.389 1.566-2.389 1.565-3.57-0.032-3.386-2.984-3.385-2.984-0.615-0.027-0.614-0.026-9-8.112-11.707-11.335 12.597-11.309-1.869-4.144-1.868-4.144-0.693-0.427-0.692-0.428-5.907 4.726m-172.96 51.345 0.7 4.381 1.662 1.664 13.618 1.665 13.618 1.666-0.024 2.503-0.024 2.502-2.078 8-1.468 6.5-1.467 6.5-2.105 6.25-2.104 6.25-5.23 0.022-3.7 0.612-3.701 0.612 0.599 3.127 0.6 3.127 6.802 20 6.055 12.439 6.054 12.438 5.399 5.272 5.4 5.271 4.676 2.741 4.676 2.74 5.244 0.05 5.244 0.049 5.528-4.124 4.124-5.536-0.096-6.17-0.095-6.17-1.727-6-1.726-6-7.654-15-7.53-19-7.529-19-1.982-7.157-1.982-7.156-0.724-6.844-0.724-6.843-0.708-1.942-0.709-1.941-8.907-0.158-8.907-0.157-8.899-0.782-8.898-0.781 0.699 4.38" fill="#e8e7ec" fill-rule="evenodd"/>
 <path d="m319.44 126.47-4.952 2.467-2.671 4.12-2.672 4.12-0.645 3.82-0.646 3.821 1.025 3.71 1.024 3.71 4.596 6.798 4.946 2.483 4.947 2.483h3.835 3.836l3.704-1.548 3.705-1.547 2.395-2.203 2.396-2.202 3.692-8v-4.5-4.5l-3.692-8-2.396-2.202-2.395-2.203-3.705-1.547-3.704-1.548h-3.836-3.835l-4.952 2.468m-131.79 30.559-2.851 0.854-3.416 2.31-3.415 2.309-2.483 4.946-2.483 4.947 0.022 4.053 0.022 4.054 3.692 8 2.396 2.202 2.395 2.203 3.705 1.547 3.704 1.548h4.064 4.064l3.704-1.548 3.705-1.547 2.395-2.203 2.396-2.202 3.692-8 0.022-4.054 0.022-4.053-2.483-4.947-2.483-4.946-3.369-2.277-3.368-2.278-3.392-0.972-3.392-0.973-2.006 0.086-2.007 0.086-2.852 0.855" fill="#fff" fill-rule="evenodd"/>
</svg>
